<?xml version="1.0" encoding="UTF-8"?>
<svg xmlns="http://www.w3.org/2000/svg" viewBox="0 0 1080 1080">
  <defs>
    <style>
      .cls-1 {
        fill: #e4037d;
      }
    </style>
  </defs>
  <g id="isotipo">
    <g id="isotipo-2" data-name="isotipo">
      <g>
        <path class="cls-1" d="M612.56,525.66c-9.89-23.07-7.07-44.18,8.01-63.86,20.14-26.29,18.36-60.56-4.18-84.89-15.43-16.65-34.67-26.11-56.82-29.82-27.47-4.6-53.51-.46-77.35,14.32-17.46,10.82-30.29,25.59-35.14,46.06-4.94,20.83.15,39.63,13.59,55.91,27.46,33.25,76.51,35.02,107.38,4.2,6.25-6.24,12.47-12.51,18.69-18.77,12.03-12.09,12.37-30.29.78-42.5-11.29-11.89-29.58-12.5-42.12-1.41-4.22,3.74-6.73,3.76-10.84.1-11.23-9.98-27.75-10.69-38.99-1.67-12.02,9.64-15.2,25.78-7.38,39.15,1.88,3.21,4.73,5.89,7.31,8.66,2.91,3.13,6.03,6.06,9.01,9.11,2.83,2.89,2.97,6.82.42,9.43-2.51,2.56-6.53,2.51-9.38-.33-4.91-4.89-10.12-9.54-14.5-14.88-10.51-12.81-12.83-27.43-6.94-42.8,5.86-15.28,17.36-24.33,33.6-26.96,11.73-1.9,22.38,1.03,32.21,7.99,5.29-3.8,11.2-6.47,17.7-7.76,18.43-3.63,36.98,5.17,46.12,21.9,8.73,15.97,6.02,36.76-6.78,49.92-8.08,8.3-16.21,16.58-24.75,24.39-29.65,27.14-78.25,28.17-109.28,2.56-17.16-14.16-27.63-32.14-29.95-54.35-2.23-21.34,4.16-40.36,17.57-56.93,15.58-19.26,36.02-30.93,59.94-36.38,33.04-7.54,64.57-3.44,93.72,14.34,19.08,11.64,33.28,27.69,39.76,49.44,7.68,25.77,2.49,49.43-13.87,70.5-12.56,16.18-13.96,37.98-3.3,53.97,2.6,3.9,2.46,8.12-.34,12.01-2.66,3.7-6.44,5.23-10.74,4-15.34-4.39-29.55-10.88-40.46-23.07-1.32-1.48-2.53-3.08-3.59-4.76-2.08-3.29-1.39-7.14,1.48-9.11,3.01-2.06,6.68-1.44,8.98,1.81,7.35,10.42,18.02,15.96,29.51,20.35.24.09.52.07.92.12Z"/>
        <path class="cls-1" d="M539.87,465.68c-8.81-.3-15.81-4.37-21.81-10.34-2.4-2.38-2.01-6.45.33-8.76,2.3-2.27,5.89-2.46,8.56-.4.97.75,1.83,1.66,2.79,2.42,7.07,5.56,13.3,5.56,20.39.01,1.04-.82,1.96-1.8,3.02-2.58,2.66-1.94,6.45-1.59,8.55.72,2.15,2.35,2.4,6.26.11,8.56-6.05,6.08-13.14,10.14-21.95,10.37Z"/>
        <path class="cls-1" d="M518.25,418.81c4.91-.01,8.62,3.67,8.64,8.59.02,4.8-3.84,8.67-8.63,8.65-4.86-.02-8.59-3.77-8.6-8.64,0-4.9,3.67-8.58,8.58-8.6Z"/>
        <path class="cls-1" d="M570.2,427.22c.05,5.06-3.66,8.84-8.67,8.82-4.64-.02-8.43-3.78-8.54-8.46-.11-4.85,3.58-8.68,8.45-8.77,4.92-.08,8.7,3.55,8.75,8.4Z"/>
      </g>
    </g>
  </g>
  <g id="dilo">
    <g id="dilo-2" data-name="dilo">
      <path class="cls-1" d="M312.84,560.27c-9.57-9.52-22.49-14.98-35.45-14.98-48.78,0-77.81,36.68-81.13,43.43-1.27,2.58-.21,5.71,2.38,6.98,2.58,1.27,5.7.21,6.97-2.38.71-1.37,7.37-10.89,19.8-20.09,4.36-3.23,9.87-6.71,16.42-9.71-3.63,8.75-9.18,23.45-14.46,41.16-8.44,28.3-13.71,55.41-15.71,80.71-5.68-1.55-9.89-3.86-10.62-5.32-.22-2.78-2.6-4.92-5.41-4.8-2.88.12-5.11,2.54-4.99,5.42.35,8.52,11.36,13.45,21.68,15.55.89,1.11,2.23,1.85,3.77,1.94.1,0,.19,0,.29,0,1.09,0,2.11-.34,2.96-.93,1.45.12,2.82.19,4.06.19,22.07,0,48.12-11.82,69.69-31.61,22.46-20.61,35.33-45.3,35.33-67.76,0-14.4-5.53-27.82-15.56-37.81ZM286.02,658.16h0c-19.4,17.8-43.4,28.86-62.64,28.86-.47,0-.93-.01-1.4-.03,5.07-65.89,31.76-124.75,32.04-125.34.42-.9.55-1.85.45-2.77,6.88-1.94,14.54-3.17,22.92-3.17,19.52,0,40.59,16.2,40.59,42.37,0,19.26-11.95,41.72-31.96,60.08Z"/>
      <circle class="cls-1" cx="335.11" cy="615.91" r="5.29"/>
      <path class="cls-1" d="M491.65,636.8h0c-1.32-2.56-4.46-3.57-7.02-2.25-2.27,1.16-11.6,3.25-20.11,3.95,1.29-4.05,2.01-7.85,2.01-10.96,0-9.99-5.75-16.45-14.64-16.45-3.82,0-8.9,2.8-12.3,7.26-1.49-1.29-3.64-1.67-5.55-.81-3.25,1.47-8.66,8.51-11.6,18.47-.5.37-.95.81-1.3,1.36l-.36.56c-19.59,30.49-32.16,36.89-39.25,36.89-2.51,0-6.25-4.38-6.25-16.45,0-7.28,1.07-15.21,3.1-23.49.49-.04.99-.14,1.47-.33,19.64-7.47,32.94-23.46,40.64-35.55,8.49-13.34,14.2-28.58,14.2-37.93,0-8.87-5.21-12.01-9.67-12.01-11.46,0-26.85,19.16-37.44,37.09-9.69,16.41-16.58,33.65-20.09,49.69-.24.21-.48.44-.69.7-2.92,3.55-22.67,18.16-29.06,18.16-1.71,0-2.11-.56-2.33-.86-1.66-2.26-2.07-9.67,2.2-23.11.87-2.74-.64-5.67-3.39-6.55-2.74-.87-5.67.64-6.55,3.39-4.91,15.42-5.13,26.33-.68,32.42,1.71,2.34,4.96,5.13,10.75,5.13,7.37,0,19.02-7.26,27.39-13.58-.18,2.32-.29,4.61-.29,6.83,0,25.58,13.89,26.88,16.67,26.88,15.23,0,29.9-16.14,39.43-29.07,1.97,10.22,8.87,14.05,14.92,14.05,10.07,0,18-10.61,21.83-16.93.82-1.36,1.6-2.75,2.33-4.15,9.82-.15,24.34-2.77,29.34-5.34,2.56-1.32,3.57-4.46,2.25-7.02ZM396.57,591.46h0c12.2-20.67,23.44-30.48,27.6-31.81.05.34.1.81.1,1.43,0,10.91-14.43,46.57-42.06,61.01,3.55-10.14,8.39-20.53,14.36-30.64ZM448.81,647.9h0c-4.38,7.23-9.45,11.91-12.92,11.91-4.57,0-5.06-6.83-5.06-9.76,0-8.7,2.8-15.4,5.16-19.38.58,5.59,3.77,10.51,9.13,14,1.31.86,2.76,1.62,4.26,2.26-.19.32-.38.64-.57.97ZM453.82,637.51c-3.68-1.47-7.51-4.31-7.51-8.72,0-3.76,4.18-6.95,5.71-7.28,1.5,0,4.09.17,4.09,6.03,0,2.3-.77,5.89-2.29,9.98Z"/>
    </g>
  </g>
  <g id="bonito">
    <g id="bonito-2" data-name="bonito">
      <circle class="cls-1" cx="765.85" cy="615.91" r="5.29"/>
      <path class="cls-1" d="M868.83,594.58c2.87.15,5.33-2.06,5.48-4.93s-2.06-5.33-4.93-5.48h0c-1.22-.06-21.78.29-44.27,1.38,2.25-5.36,4.66-10.79,7.24-16.27.68-1.44,1.13-2.39,1.39-3.01,1.12-2.65-.13-5.71-2.78-6.83s-5.71.13-6.83,2.78c-.18.42-.63,1.39-1.21,2.61-3.4,7.21-6.5,14.33-9.35,21.33-16.52.98-32.49,2.37-41.15,4.3-2.81.63-4.58,3.41-3.95,6.22.54,2.43,2.69,4.08,5.08,4.08.38,0,.76-.04,1.14-.13,7.1-1.58,20.33-2.82,34.69-3.76-5.38,14.32-9.65,28.06-13.06,40.93-5.27,4.89-22.03,16.89-27.82,16.89-1.71,0-2.11-.56-2.33-.86-1.66-2.26-2.07-9.67,2.2-23.11.87-2.74-.64-5.67-3.39-6.55s-5.67.64-6.55,3.39c-.97,3.06-1.75,5.93-2.36,8.62-.16.23-.32.46-.45.72-2.14,4.29-17.17,19.71-24.6,19.71-6.16,0-7.78-6.72-8.76-19.95-.23-3.03-.42-5.65-.87-7.79-1.35-6.32-5.38-7-7.05-7-3.56,0-8.56,2.2-20.77,17.57,3.09-9,5.99-16.34,6.86-18.14,1.25-2.59.15-5.71-2.44-6.96-2.6-1.25-5.71-.15-6.96,2.44-1,2.09-3.92,9.44-7.05,18.49-3.78,1.16-11.22,2.63-18.11,3.21,1.29-4.05,2.01-7.85,2.01-10.96,0-9.99-5.75-16.45-14.64-16.45-3.82,0-8.9,2.8-12.3,7.26-1.49-1.29-3.64-1.67-5.55-.81-3.11,1.4-8.19,7.9-11.2,17.18-8.17.53-16.04,1.81-23.36,3.75.04-.63.05-1.25.05-1.87,0-2.55-.19-5.85-1.64-8.69-1.88-3.67-5.36-5.69-9.82-5.69-10.58,0-21.69,10.4-29.15,19.13-1.25,1.47-2.49,2.99-3.69,4.55.79-3.75,1.67-7.38,2.64-10.88,26.49-11.35,54.23-52.97,54.23-74.94,0-6.47-4.33-9.86-8.61-9.86-12.03,0-27.18,19.35-37.34,37.47-8.3,14.79-22.54,45.12-24.57,82.03,0,.03,0,.06,0,.1,0,.11,0,.22,0,.32,0,.07,0,.14,0,.21,0,.1.02.19.03.29,0,.08.02.16.03.24.01.08.03.17.05.25.02.09.04.18.06.26.02.07.04.14.06.21.03.09.06.18.09.27.03.07.05.13.08.19.04.09.08.18.12.26.03.07.07.13.1.19.04.08.09.16.14.24.04.07.09.14.14.21s.09.13.14.2c.06.07.11.14.17.21.05.06.09.11.14.16.07.07.14.14.21.21.05.05.1.1.15.14.07.06.15.13.22.19.06.05.11.09.17.13.07.05.15.1.22.15.07.05.14.09.21.13.07.04.14.08.21.12.09.04.17.09.26.13.06.03.13.06.19.08.1.04.2.08.3.11.03.01.06.02.09.03.04.01.07.02.11.03.1.03.19.05.29.08.08.02.16.04.25.05.08.01.16.03.24.04.1.01.2.02.3.03.04,0,.07,0,.11.01.06,0,.11,0,.17,0,.04,0,.07,0,.11,0h.01s.09,0,.13,0c.12,0,.24,0,.36-.02.09,0,.17-.02.26-.04.08-.01.15-.02.23-.03.13-.03.26-.06.39-.09.03,0,.06-.01.09-.02.64-.19,1.24-.5,1.75-.9.07-.06.14-.12.22-.19.05-.04.1-.08.15-.13.07-.07.14-.15.21-.22.04-.04.09-.09.13-.14.06-.07.12-.14.17-.22.05-.06.09-.12.14-.18.05-.06.09-.13.13-.2.05-.08.1-.15.14-.23.03-.06.06-.12.1-.18.05-.09.1-.19.14-.28.02-.05.05-.11.07-.17.04-.11.08-.21.12-.32,0-.02.02-.04.02-.07,3.21-10.02,24.61-38.94,36.33-38.94.28,0,.46.02.56.04.15.3.47,1.25.47,3.91,0,1.72-.19,3.54-.56,5.44-4.31,1.69-8.33,3.65-11.99,5.85-13.68,8.25-21.22,19.18-21.22,30.8,0,4.43,3.42,8.04,7.62,8.04,10.39,0,20.93-13.14,23.92-17.17,4.68-6.32,8.2-13.02,10.32-19.51,7.07-2.3,15-3.92,23.43-4.68-.15,1.53-.23,3.09-.23,4.69,0,14.9,8.34,20.18,15.49,20.18,10.07,0,18-10.61,21.83-16.93.82-1.36,1.6-2.75,2.33-4.15,5.61-.09,12.75-.98,18.78-2.21-2.07,6.76-3.91,13.65-4.96,19.49-.46,2.53,1.01,5.02,3.44,5.85.56.19,1.13.28,1.69.28,1.89,0,3.7-1.04,4.62-2.79,1.18-2.25,6.87-10.96,14-20.3,6.18-8.1,10.21-12.42,12.69-14.72.08.91.15,1.85.21,2.68.4,5.39.9,12.09,3.05,17.72,3.76,9.83,10.83,11.89,16.11,11.89,7.85,0,17.13-6.79,24.06-13.53.51,2.55,1.39,4.72,2.67,6.48,1.71,2.34,4.96,5.13,10.75,5.13,6.38,0,15.95-5.43,23.84-10.99-3.63,16.31-5.85,30.8-7.18,42.76-.32,2.86,1.74,5.44,4.6,5.76.2.02.39.03.58.03,2.62,0,4.88-1.97,5.17-4.63,1.65-14.83,4.69-33.65,10.21-55.04.91-1.16,1.24-2.59,1.04-3.95,3.61-13.44,8.19-27.83,14.02-42.84,23.03-1.23,45.6-1.72,48.04-1.64ZM576.58,592.77c11.59-20.65,21.74-29.54,26.41-31.64-.48,8.7-6.58,22.34-15.81,35.25-7.2,10.07-15.41,18.47-23.27,24.01,4.3-11.73,9.07-21.21,12.67-27.62ZM579.85,663.34c-4.64,6.26-9.2,10.11-12.36,11.85,1.54-7.19,7.75-13.85,17.03-19.09-1.35,2.45-2.92,4.88-4.67,7.24ZM650.15,647.9h0c-4.38,7.23-9.45,11.91-12.92,11.91-4.57,0-5.07-6.83-5.07-9.76,0-8.7,2.81-15.4,5.16-19.38.58,5.59,3.77,10.51,9.13,14,1.31.86,2.76,1.62,4.26,2.26-.19.32-.38.64-.57.97ZM655.17,637.51c-3.68-1.47-7.51-4.31-7.51-8.72,0-3.76,4.18-6.95,5.71-7.28,1.5,0,4.09.17,4.09,6.03,0,2.3-.77,5.89-2.29,9.98Z"/>
      <path class="cls-1" d="M898.34,636.8h0c-1.32-2.56-4.46-3.57-7.02-2.25-2.27,1.16-11.6,3.25-20.11,3.95,1.29-4.05,2.01-7.85,2.01-10.96,0-9.99-5.75-16.45-14.64-16.45-3.82,0-8.9,2.8-12.3,7.26-1.49-1.29-3.64-1.67-5.55-.81-4.63,2.09-13.64,15.46-13.64,32.51,0,14.9,8.34,20.18,15.49,20.18,10.07,0,18-10.61,21.83-16.93.82-1.36,1.6-2.75,2.33-4.15,9.82-.15,24.34-2.77,29.35-5.34,2.56-1.32,3.57-4.46,2.25-7.02ZM855.5,647.9h0c-4.38,7.23-9.45,11.91-12.92,11.91-4.57,0-5.07-6.83-5.07-9.76,0-8.7,2.81-15.4,5.16-19.38.58,5.59,3.77,10.51,9.13,14,1.31.86,2.76,1.62,4.26,2.26-.19.32-.38.64-.57.97ZM860.52,637.51c-3.68-1.47-7.51-4.31-7.51-8.72,0-3.76,4.18-6.95,5.71-7.28,1.5,0,4.08.17,4.08,6.03,0,2.3-.77,5.89-2.29,9.98Z"/>
    </g>
  </g>
</svg>